<?xml version="1.0" encoding="utf-8"?>
<!-- Generator: Adobe Illustrator 24.0.2, SVG Export Plug-In . SVG Version: 6.00 Build 0)  -->
<svg version="1.1" id="Layer_1" xmlns="http://www.w3.org/2000/svg" xmlns:xlink="http://www.w3.org/1999/xlink" x="0px" y="0px"
	 viewBox="0 0 512 512" style="enable-background:new 0 0 512 512;" xml:space="preserve">
<style type="text/css">
	.st0{fill:#F94141;}
</style>
<path class="st0" d="M315.3,400.5L137.6,255l177.7-145.5l25.3,30.9L200.7,255l139.9,114.5L315.3,400.5z M511.9,452V60
	c0-33.1-26.9-60-60-60h-392C26.9,0,0.1,26.9,0.1,60v392c0,33.1,26.8,60,59.9,60h392C485,512,511.9,485.1,511.9,452z M451.9,40
	c11,0,20.1,9,20.1,20v392c0,11-9.1,20-20.1,20h-392c-11,0-20-9-20-20V60c0-11,9-20,20-20H451.9z"/>
</svg>
